# xmcd
#
# Track frame offsets:
#  150
#  14947
#  24798
#  36290
#  49628
#  61574
#  76939
#  89357
#  103722
#  117854
#  133676
#  147695
#  163590
#  180366
#  194413
#  212151
#
# Disc length: 3086 seconds
#
# Revision: 0
# Processed by: cddbd v1.5.1PL2 Copyright (c) Steve Scherf et al.
# Submitted via: Collectorz.com_Music_Collector 6.10
#
DISCID=d80c0c10
DTITLE=Various Artist - Country Superstars
DYEAR=1999
DGENRE=Country
TTITLE0=Jeannie C Riley - The Harper Valley P.T.A
TTITLE1=Jeannie C Riley - The Girl Most Likely
TTITLE2=Jeannie C Riley - Am I That Easy To Forget
TTITLE3=Jeannie C Riley - Games People Play
TTITLE4=Jeannie C Riley - Country Girl
TTITLE5=Jeannie C Riley - Run, Jeannie, Run
TTITLE6=Jeannie C Riley - I'm Only A Women
TTITLE7=Jeannie C Riley - Children
TTITLE8=Don Fardon - Indian Reservation
TTITLE9=Don Fardon - A Good Woman's Love
TTITLE10=Don Fardon - Cocktail Bar Blues
TTITLE11=Don Fardon - Brown Eyed And Blue
TTITLE12=Don Fardon - Fear Of Losing You
TTITLE13=Don Fardon - Champion Of The Rodeo
TTITLE14=Don Fardon - Gone Country
TTITLE15=Don Fardon - Who's That Man
EXTD=
EXTT0=
EXTT1=
EXTT2=
EXTT3=
EXTT4=
EXTT5=
EXTT6=
EXTT7=
EXTT8=
EXTT9=
EXTT10=
EXTT11=
EXTT12=
EXTT13=
EXTT14=
EXTT15=
PLAYORDER=
